<svg xmlns="http://www.w3.org/2000/svg" viewBox="0 0 15 16"><path fill="#FFF" fill-rule="evenodd" d="M8.432.386c1.053.004 1.34.015 1.954.044.783.036 1.317.162 1.785.346a3.6 3.6 0 011.302.86c.41.414.66.83.849 1.32.181.474.306 1.015.341 1.808.03.657.041.944.044 2.165v1.815a39.608 39.608 0 01-.044 2.165c-.035.793-.16 1.335-.341 1.81-.188.49-.44.905-.849 1.32a3.6 3.6 0 01-1.302.859c-.468.184-1.002.31-1.785.346-.648.03-.932.041-2.137.044H6.46a38.067 38.067 0 01-2.137-.044c-.783-.036-1.317-.162-1.785-.346a3.6 3.6 0 01-1.303-.86 3.658 3.658 0 01-.848-1.32C.204 12.244.08 11.702.044 10.91c-.028-.622-.039-.912-.043-1.98V6.745a37.3 37.3 0 01.043-1.98c.036-.793.16-1.334.342-1.808.188-.49.44-.906.848-1.32a3.6 3.6 0 011.303-.86C3.005.592 3.539.466 4.322.43c.567-.026.855-.038 1.724-.043h2.386zm-.604 1.342H6.88c-1.533.001-1.789.01-2.497.043-.717.033-1.106.155-1.365.257a2.275 2.275 0 00-.846.557c-.257.26-.416.51-.55.857-.1.263-.22.657-.253 1.384-.03.649-.04.923-.042 2.12v1.782c.002 1.197.013 1.471.042 2.12.033.727.152 1.121.253 1.384.134.348.293.596.55.857.258.26.503.422.846.557.259.102.648.224 1.365.257.708.032.964.042 2.497.043h.95c1.533-.001 1.789-.01 2.496-.043.717-.033 1.107-.155 1.366-.257.343-.135.588-.297.846-.557.257-.261.416-.51.55-.857.1-.263.22-.657.253-1.384.03-.649.04-.923.042-2.12V6.946a38.543 38.543 0 00-.042-2.12c-.033-.727-.153-1.121-.253-1.384a2.312 2.312 0 00-.55-.857 2.275 2.275 0 00-.846-.557c-.26-.102-.649-.224-1.366-.257-.708-.033-.963-.042-2.497-.043zM7.354 4.01c2.085 0 3.776 1.713 3.776 3.827 0 2.113-1.69 3.827-3.776 3.827S3.578 9.95 3.578 7.837c0-2.114 1.69-3.827 3.776-3.827zm0 1.343C6 5.353 4.903 6.465 4.903 7.837c0 1.372 1.097 2.484 2.45 2.484 1.355 0 2.452-1.112 2.452-2.484 0-1.372-1.097-2.484-2.451-2.484zm3.925-2.388c.488 0 .883.4.883.894a.888.888 0 01-.883.894.888.888 0 01-.882-.894c0-.494.395-.894.882-.894z"/></svg>