<svg width="30" height="22" viewBox="0 0 30 22" xmlns="http://www.w3.org/2000/svg" xmlns:xlink="http://www.w3.org/1999/xlink"><title>GB@1,5x</title><defs><rect id="a" x="0" y="0" width="29" height="20.952" rx="1.957"/></defs><g transform="translate(.636 .422)" fill="none" fill-rule="evenodd"><mask id="b" fill="#fff"><use xlink:href="#a"/></mask><use fill="#FFF" xlink:href="#a"/><path fill="#0A17A7" mask="url(#b)" d="M0 0h29v20.952H0z"/><path d="M6.912 13.968H0V6.984h6.912L-2.873.308l1.545-2.316 12.376 8.444v-7.833h6.904v7.833l12.376-8.444L31.873.308l-9.785 6.676H29v6.984h-6.912l9.785 6.676-1.545 2.316-12.376-8.444v7.833h-6.904v-7.833L-1.328 22.96l-1.545-2.316 9.785-6.676z" fill="#FFF" mask="url(#b)"/><path d="M19.335 6.634l13.117-8.73" stroke="#DB1F35" stroke-width="1.305" stroke-linecap="round" mask="url(#b)"/><path d="M20.728 22.367l11.759-8.017" stroke="#DB1F35" stroke-width="1.305" stroke-linecap="round" mask="url(#b)" transform="matrix(1 0 0 -1 0 36.717)"/><path d="M8.291 6.611L-3.975-1.751" stroke="#DB1F35" stroke-width="1.305" stroke-linecap="round" mask="url(#b)"/><path d="M9.622 23.373l-13.597-9.12" stroke="#DB1F35" stroke-width="1.305" stroke-linecap="round" mask="url(#b)" transform="matrix(1 0 0 -1 0 37.626)"/><path fill="#E6273E" mask="url(#b)" d="M0 12.571h12.429v8.381h4.142v-8.38H29V8.38H16.571V0H12.43v8.381H0z"/></g></svg>