<?xml version="1.0" standalone="no"?>
<!DOCTYPE svg PUBLIC "-//W3C//DTD SVG 20010904//EN"
 "http://www.w3.org/TR/2001/REC-SVG-20010904/DTD/svg10.dtd">
<svg version="1.0" xmlns="http://www.w3.org/2000/svg"
 width="128.000000pt" height="128.000000pt" viewBox="0 0 128.000000 128.000000"
 preserveAspectRatio="xMidYMid meet">
<metadata>
Created by potrace 1.11, written by Peter Selinger 2001-2013
</metadata>
<g transform="translate(0.000000,128.000000) scale(0.100000,-0.100000)"
fill="#000000" stroke="none">
<path d="M340 1269 c-8 -5 -79 -36 -157 -71 l-143 -62 0 -568 0 -568 163 0
163 0 -1 634 c0 349 -2 636 -5 639 -3 3 -12 1 -20 -4z"/>
<path d="M590 520 l0 -520 325 0 325 0 -2 432 -3 433 -190 53 c-206 58 -204
57 -255 71 -19 5 -68 19 -107 30 -40 12 -77 21 -83 21 -7 0 -10 -176 -10 -520z"/>
</g>
</svg>
