<?xml version="1.0" standalone="no"?>
<!DOCTYPE svg PUBLIC "-//W3C//DTD SVG 20010904//EN"
 "http://www.w3.org/TR/2001/REC-SVG-20010904/DTD/svg10.dtd">
<svg version="1.0" xmlns="http://www.w3.org/2000/svg"
 width="400.000000pt" height="400.000000pt" viewBox="0 0 400.000000 400.000000"
 preserveAspectRatio="xMidYMid meet">
<metadata>
Created by potrace 1.11, written by Peter Selinger 2001-2013
</metadata>
<g transform="translate(0.000000,400.000000) scale(0.100000,-0.100000)"
fill="#000000" stroke="none">
<path d="M960 3349 l-385 -169 0 -1350 0 -1350 387 0 388 0 0 1520 c0 836 -1
1520 -2 1520 -2 -1 -176 -77 -388 -171z"/>
<path d="M1879 2948 c-2 -7 -4 -564 -3 -1238 l0 -1225 775 -3 774 -2 0 1021
c0 898 -2 1023 -15 1030 -8 4 -73 24 -145 44 -71 19 -159 44 -195 54 -36 11
-173 49 -305 86 -132 37 -253 71 -270 76 -35 11 -547 154 -586 164 -18 4 -28
2 -30 -7z"/>
</g>
</svg>
