<svg xmlns="http://www.w3.org/2000/svg" viewBox="0 0 134 23"><g fill="#181818" fill-rule="evenodd"><path d="M5.516.5v22H0V2.966L5.516.5zm2.452 2.146L19 5.811V22.5H7.968V2.646z"/><path fill-rule="nonzero" d="M41.347 14.29c0 2.246-1.115 4.059-3.372 4.059-2.23 0-3.345-1.771-3.37-3.98l-.001-7.385h-4.079v7.306c0 4.275 2.937 7.739 7.45 7.739 4.514 0 7.45-3.464 7.45-7.739V6.984h-4.078v7.306zm14.138-7.739c-4.513 0-7.613 3.464-7.613 7.74v7.305h4.079V14.29c0-2.246 1.278-4.059 3.534-4.059 2.257 0 3.535 1.813 3.535 4.06v7.305h4.078V14.29c0-4.275-3.1-7.739-7.613-7.739zm10.196 15.045h4.079V.023l-4.079 2.09v19.483zM79.738 6.551c-4.459 0-8.075 3.464-8.075 7.74 0 4.274 3.616 7.738 8.075 7.738a5.175 5.175 0 004.27-2.246v1.813h3.806V14.29c0-4.275-3.617-7.739-8.076-7.739zm.082 11.798a4.063 4.063 0 01-4.079-4.059 4.063 4.063 0 014.079-4.059 4.063 4.063 0 014.078 4.06 4.063 4.063 0 01-4.078 4.058zM94.393.023l-4.078 2.09V14.29c0 4.275 3.1 7.739 7.613 7.739h.544v-3.68a4.063 4.063 0 01-4.079-4.059v-3.842h4.079V6.984h-4.079V.023zm14.003 10.208c1.577 0 2.91.866 3.616 2.165h4.296c-.897-3.355-4.105-5.845-7.912-5.845-4.513 0-8.157 3.464-8.157 7.74 0 4.274 3.644 7.738 8.157 7.738 3.78 0 6.933-2.435 7.858-5.737h-4.378c-.68 1.218-1.957 2.057-3.48 2.057a4.063 4.063 0 01-4.078-4.059 4.063 4.063 0 014.078-4.059zm17.32-3.68c4.513 0 7.613 3.464 7.613 7.74v7.305h-4.079V14.29c0-2.246-1.277-4.059-3.534-4.059-2.257 0-3.535 1.813-3.535 4.032v7.333h-4.078V2.114L122.18.023V7.85a5.404 5.404 0 013.535-1.299z"/></g></svg>