<svg xmlns="http://www.w3.org/2000/svg" viewBox="0 0 18 15"><path fill="#1DA1F2" fill-rule="evenodd" d="M17.504.277a7.26 7.26 0 0 1-2.347.918A3.642 3.642 0 0 0 12.462 0C10.424 0 8.77 1.696 8.77 3.787c0 .297.032.585.095.862C5.796 4.49 3.075 2.985 1.253.69a3.855 3.855 0 0 0-.5 1.906 3.81 3.81 0 0 0 1.643 3.151 3.625 3.625 0 0 1-1.674-.471v.046c0 1.835 1.273 3.366 2.964 3.713a3.598 3.598 0 0 1-1.668.066c.47 1.504 1.833 2.6 3.45 2.628A7.293 7.293 0 0 1 0 13.3 10.28 10.28 0 0 0 5.661 15c6.793 0 10.507-5.77 10.507-10.774 0-.164-.003-.329-.01-.49A7.576 7.576 0 0 0 18 1.776c-.661.3-1.374.504-2.12.596A3.78 3.78 0 0 0 17.504.277"/></svg>