<svg xmlns="http://www.w3.org/2000/svg" viewBox="0 0 20 19"><path fill="#F4F5F5" fill-opacity=".7" fill-rule="evenodd" d="M20 18.5h-4.42v-6.328c0-1.656-.692-2.787-2.212-2.787-1.163 0-1.81.763-2.11 1.499-.114.264-.096.631-.096.999V18.5h-4.38s.057-11.209 0-12.228h4.38v1.92c.259-.84 1.658-2.037 3.89-2.037C17.824 6.155 20 7.913 20 11.7V18.5zM2.354 4.743h-.028C.915 4.743 0 3.808 0 2.623 0 1.415.942.5 2.381.5c1.438 0 2.323.913 2.35 2.12 0 1.184-.912 2.123-2.377 2.123zm-1.85 1.53h3.899V18.5H.504V6.272z"/></svg>