<svg width="136" height="36" xmlns="http://www.w3.org/2000/svg">
  <g fill="#181818" fill-rule="nonzero">
    <path d="M5.68 0v22.4H0V2.51L5.68 0zm3.875 4.095l11.36 3.207v15.093H9.555v-18.3zM42.943 14.56c0 2.266-1.12 4.095-3.385 4.095-2.24 0-3.36-1.787-3.385-4.016v-7.45h-4.095v7.371c0 4.313 2.948 7.808 7.48 7.808s7.48-3.495 7.48-7.808V7.189h-4.095v7.371zm14.196-7.353c-4.532 0-7.644 3.495-7.644 7.808v7.371h4.095v-7.371c0-2.266 1.283-4.095 3.549-4.095s3.549 1.83 3.549 4.095v7.371h4.095v-7.371c0-4.313-3.112-7.808-7.644-7.808zm10.237 15.179h4.095V0l-4.095 1.82v20.566zM81.75 7.144c-4.334 0-7.849 3.406-7.849 7.612 0 4.205 3.515 7.612 7.849 7.612 1.718 0 3.25-.878 4.149-2.209v2.227h3.7v-7.63c0-4.206-3.515-7.612-7.85-7.612zm0 11.602a3.976 3.976 0 01-3.981-3.981 3.976 3.976 0 013.98-3.981 3.976 3.976 0 013.982 3.98 3.976 3.976 0 01-3.981 3.982zM96.205 0L92.11 1.82v12.74c0 4.313 3.112 7.808 7.644 7.808h.546v-3.713a4.09 4.09 0 01-4.095-4.095v-3.877h4.095V7.19h-4.095V0zm14.047 10.75c1.54 0 2.842.852 3.533 2.131h4.197c-.877-3.304-4.011-5.756-7.73-5.756-4.409 0-7.968 3.411-7.968 7.622 0 4.21 3.56 7.62 7.968 7.62 3.692 0 6.773-2.397 7.676-5.649h-4.276c-.664 1.2-1.912 2.026-3.4 2.026a3.985 3.985 0 01-3.984-3.997 3.985 3.985 0 013.984-3.998zm17.403-3.543c4.532 0 7.644 3.495 7.644 7.808v7.371h-4.095v-7.371c0-2.266-1.283-4.095-3.55-4.095-2.265 0-3.548 1.83-3.548 4.068v7.398h-4.095V1.82L124.106 0v8.518a5.41 5.41 0 013.549-1.31zM88.197 28.907c-.517 0-.99.209-1.335.554v-2.043H85.5v6.539h1.271v-.609c.31.454.836.754 1.426.754 1.49 0 2.698-1.163 2.698-2.597 0-1.435-1.208-2.598-2.698-2.598zm-.027 3.96a1.36 1.36 0 01-1.362-1.362 1.36 1.36 0 011.362-1.363 1.36 1.36 0 011.362 1.363 1.36 1.36 0 01-1.362 1.362zm5.703-.99l-1.271-2.825h-1.48l2.016 4.323-1 2.216h1.517l2.98-6.539h-1.481l-1.28 2.825zm10.072 2.08v-1.308h-3.088v-5.231h-1.453v6.539h4.541zm3.042-5.05c-1.507 0-2.724 1.163-2.724 2.598 0 1.434 1.217 2.597 2.724 2.597 1.2 0 2.216-.736 2.58-1.762h-1.508a1.356 1.356 0 01-1.072.527c-.59 0-1.08-.373-1.28-.89h3.96c.027-.155.045-.309.045-.472 0-1.435-1.217-2.598-2.725-2.598zm-1.28 2.125c.2-.517.69-.89 1.28-.89.582 0 1.081.373 1.28.89h-2.56zm7.065-2.125c-1.489 0-2.697 1.163-2.697 2.598 0 1.434 1.208 2.597 2.697 2.597.536 0 1.018-.254 1.326-.654v.018c-.036.718-.59 1.299-1.326 1.299-.435 0-.817-.218-1.062-.563h-1.49c.327 1.062 1.39 1.798 2.552 1.798 1.508 0 2.698-1.162 2.698-2.597v-1.898c0-1.435-1.208-2.598-2.698-2.598zm-1.335 2.598a1.36 1.36 0 011.363-1.363 1.36 1.36 0 011.362 1.363 1.36 1.36 0 01-1.362 1.362 1.36 1.36 0 01-1.363-1.362zm7.275-2.598c-1.49 0-2.697 1.163-2.697 2.598 0 1.434 1.208 2.597 2.697 2.597.59 0 1.117-.3 1.426-.754v.609h1.271v-2.452c0-1.435-1.208-2.598-2.697-2.598zm.027 3.96a1.36 1.36 0 01-1.362-1.362 1.36 1.36 0 011.362-1.363 1.36 1.36 0 011.362 1.363 1.36 1.36 0 01-1.362 1.362zm3.533 1.09h1.362v-6.54h-1.362v6.54zm2.352 0h1.362v-4.905h-1.362v4.905zm.681-6.957a.781.781 0 100 1.562.781.781 0 000-1.562zm2.044 2.052h-.554v1.163h.554v3.742h1.362v-3.742h.926v-1.163h-.926c0-.145.063-.281.154-.381.191-.19.463-.309.754-.309h.018v-1.09h-.508c-.981 0-1.78.8-1.78 1.78zm5.376-.145c-1.508 0-2.724 1.163-2.724 2.598 0 1.434 1.216 2.597 2.724 2.597 1.199 0 2.216-.736 2.58-1.762h-1.508a1.356 1.356 0 01-1.072.527c-.59 0-1.08-.373-1.28-.89h3.96c.026-.155.045-.309.045-.472 0-1.435-1.217-2.598-2.725-2.598zm-1.28 2.125c.2-.517.69-.89 1.28-.89.581 0 1.08.373 1.28.89h-2.56z"/>
  </g>
</svg>