<svg xmlns="http://www.w3.org/2000/svg" viewBox="0 0 134 23"><g fill="#FFF" fill-rule="evenodd"><path d="M5.516.477v22H0V2.943L5.516.477zm2.452 2.147L19 5.788v16.69H7.968V2.623z"/><path fill-rule="nonzero" d="M41.347 14.267c0 2.246-1.115 4.06-3.372 4.06-2.23 0-3.345-1.772-3.37-3.981l-.001-7.385h-4.079v7.306c0 4.276 2.937 7.74 7.45 7.74 4.514 0 7.45-3.464 7.45-7.74V6.961h-4.078v7.306zM55.485 6.53c-4.513 0-7.613 3.463-7.613 7.738v7.306h4.079v-7.306c0-2.246 1.278-4.058 3.534-4.058 2.257 0 3.535 1.812 3.535 4.058v7.306h4.078v-7.306c0-4.275-3.1-7.738-7.613-7.738zm10.196 15.044h4.079V0L65.68 2.09v19.483zM79.738 6.53c-4.459 0-8.075 3.463-8.075 7.738 0 4.276 3.616 7.74 8.075 7.74a5.175 5.175 0 004.27-2.247v1.813h3.806v-7.306c0-4.275-3.617-7.738-8.076-7.738zm.082 11.797a4.063 4.063 0 01-4.079-4.059 4.063 4.063 0 014.079-4.058 4.063 4.063 0 014.078 4.058 4.063 4.063 0 01-4.078 4.06zM94.393 0l-4.078 2.09v12.177c0 4.276 3.1 7.74 7.613 7.74h.544v-3.68a4.063 4.063 0 01-4.079-4.06v-3.842h4.079V6.961h-4.079V0zm14.003 10.209c1.577 0 2.91.865 3.616 2.164h4.296c-.897-3.355-4.105-5.844-7.912-5.844-4.513 0-8.157 3.463-8.157 7.738 0 4.276 3.644 7.74 8.157 7.74 3.78 0 6.933-2.436 7.858-5.737h-4.378c-.68 1.217-1.957 2.056-3.48 2.056a4.063 4.063 0 01-4.078-4.059 4.063 4.063 0 014.078-4.058zm17.32-3.68c4.513 0 7.613 3.463 7.613 7.738v7.306h-4.079v-7.306c0-2.246-1.277-4.058-3.534-4.058-2.257 0-3.535 1.812-3.535 4.031v7.333h-4.078V2.091L122.18 0v7.827a5.404 5.404 0 013.535-1.298z"/></g></svg>